<?xml version="1.0" standalone="no"?>
<!DOCTYPE svg PUBLIC "-//W3C//DTD SVG 20010904//EN"
 "http://www.w3.org/TR/2001/REC-SVG-20010904/DTD/svg10.dtd">
<svg version="1.0" xmlns="http://www.w3.org/2000/svg"
 width="163.000000pt" height="180.000000pt" viewBox="0 0 163.000000 180.000000"
 preserveAspectRatio="xMidYMid meet">

<g transform="translate(0.000000,180.000000) scale(0.100000,-0.100000)"
fill="#000000" stroke="none">
<path d="M1145 1368 c-82 -42 -115 -93 -115 -179 0 -22 -8 -47 -21 -63 l-21
-26 -33 29 c-19 16 -43 32 -54 36 -12 3 -21 10 -21 15 0 16 -58 40 -96 40 -27
0 -44 -8 -69 -33 -18 -18 -52 -39 -75 -46 -45 -13 -80 -57 -80 -101 0 -17 -9
-30 -30 -42 -34 -20 -64 -79 -55 -109 4 -13 -2 -30 -20 -51 -22 -26 -26 -39
-22 -71 3 -21 17 -56 31 -77 32 -48 26 -53 -69 -61 l-70 -6 63 -1 c35 -1 72 3
83 9 18 9 27 3 74 -48 52 -56 53 -59 35 -78 -22 -25 -43 -65 -37 -71 2 -3 10
9 17 25 6 16 20 37 30 46 16 14 20 14 47 -1 37 -22 80 -12 95 21 6 14 23 27
39 30 15 3 39 17 54 31 22 21 30 23 43 12 14 -10 15 -10 5 2 -18 19 -16 65 2
80 8 7 15 20 15 29 0 10 -15 -1 -43 -30 -23 -25 -53 -51 -65 -58 -12 -6 -22
-18 -22 -26 0 -18 -16 -20 -23 -2 -4 7 -6 6 -6 -5 -1 -9 7 -19 17 -21 12 -3
13 -5 2 -6 -8 0 -20 -11 -25 -23 -16 -34 -39 -44 -71 -30 -14 7 -24 15 -21 19
4 3 14 0 23 -7 10 -9 18 -10 22 -4 4 6 15 14 26 17 15 6 17 14 13 42 -4 21 -1
35 6 38 7 2 4 3 -5 2 -20 -3 -41 18 -30 30 4 5 2 5 -5 1 -7 -3 -24 6 -39 21
l-27 28 22 -32 c21 -32 21 -33 4 -51 -10 -11 -26 -24 -37 -29 -17 -10 -17 -11
5 -33 21 -20 22 -21 3 -12 -11 6 -26 18 -33 26 -11 13 -11 17 1 21 8 3 15 12
15 20 0 8 -4 12 -8 9 -4 -2 -10 0 -14 6 -4 6 -11 8 -16 4 -5 -3 -7 -10 -3 -15
3 -5 10 -7 15 -4 5 4 9 2 9 -4 0 -41 -75 34 -117 118 -30 58 -29 77 5 110 24
24 27 34 24 74 -3 40 0 50 23 72 16 14 34 25 41 25 9 0 14 11 14 28 0 35 23
78 39 74 7 -1 10 2 6 7 -8 15 57 31 73 18 7 -5 10 -13 6 -16 -4 -3 -9 -1 -11
5 -4 13 -43 7 -43 -7 0 -5 6 -8 13 -7 6 2 11 -3 9 -10 -2 -14 44 -35 59 -26 5
3 9 11 8 17 0 9 -2 9 -6 0 -2 -7 -9 -13 -14 -13 -6 0 -6 7 0 19 8 14 7 22 -4
31 -17 14 -6 42 18 46 8 1 25 5 37 9 13 4 20 3 17 -2 -9 -15 47 -9 59 6 10 13
16 11 44 -12 17 -15 36 -27 41 -27 5 0 18 -9 30 -21 20 -20 20 -22 3 -40 -33
-37 2 -19 41 21 34 35 39 47 46 105 11 84 33 115 111 154 34 17 55 31 47 31
-8 -1 -32 -10 -54 -22z m-310 -167 c3 -5 1 -12 -5 -16 -5 -3 -10 -1 -10 4 0
16 -36 13 -73 -4 l-32 -16 24 21 c24 21 85 28 96 11z m10 -563 c-6 -31 -49
-71 -70 -66 -17 3 -17 4 0 18 17 13 18 13 11 0 -4 -9 -2 -8 7 2 8 10 18 14 22
10 5 -4 5 1 2 10 -3 10 1 24 9 33 21 20 24 19 19 -7z m-166 -44 c14 9 14 4 1
-28 -10 -28 -38 -34 -58 -14 -14 14 -16 32 -4 24 5 -3 15 4 22 14 9 13 16 16
21 8 4 -6 12 -7 18 -4z m31 -40 c0 -8 -4 -12 -10 -9 -5 3 -10 10 -10 16 0 5 5
9 10 9 6 0 10 -7 10 -16z"/>
<path d="M1203 1344 c-32 -61 -30 -88 10 -117 67 -51 72 -49 133 48 23 37 23
38 2 14 -13 -15 -31 -41 -40 -58 -15 -27 -22 -31 -40 -25 -72 22 -92 67 -58
131 13 24 21 45 19 47 -2 2 -14 -16 -26 -40z"/>
<path d="M1393 1200 c0 -41 2 -58 4 -37 2 20 2 54 0 75 -2 20 -4 3 -4 -38z"/>
<path d="M796 1115 c-3 -8 -1 -15 4 -15 6 0 10 7 10 15 0 8 -2 15 -4 15 -2 0
-6 -7 -10 -15z"/>
<path d="M1120 983 c1 -4 18 -19 38 -32 36 -23 36 -23 17 -1 -22 25 -55 45
-55 33z"/>
<path d="M1070 945 c-21 -22 -22 -27 -10 -56 12 -27 11 -36 -5 -65 -10 -19
-35 -42 -59 -54 -22 -11 -30 -18 -16 -14 67 18 110 79 92 131 -8 24 -6 32 16
56 14 15 21 27 16 27 -6 0 -21 -11 -34 -25z"/>
<path d="M857 866 c21 -30 39 -53 41 -51 4 4 -68 105 -75 105 -2 0 13 -24 34
-54z"/>
<path d="M1090 890 c0 -5 7 -7 15 -4 8 4 15 8 15 10 0 2 -7 4 -15 4 -8 0 -15
-4 -15 -10z"/>
<path d="M680 812 c0 -5 3 -12 8 -14 4 -1 28 -26 55 -55 26 -29 47 -49 47 -45
-1 12 -110 126 -110 114z"/>
<path d="M461 794 c0 -11 3 -14 6 -6 3 7 2 16 -1 19 -3 4 -6 -2 -5 -13z"/>
<path d="M941 744 c0 -11 3 -14 6 -6 3 7 2 16 -1 19 -3 4 -6 -2 -5 -13z"/>
<path d="M887 677 c-13 -20 -14 -28 -4 -33 6 -4 9 -4 5 1 -4 4 0 13 9 20 8 6
14 18 11 25 -2 8 -10 4 -21 -13z"/>
<path d="M724 645 c15 -8 33 -15 40 -15 16 1 -36 29 -54 30 -8 0 -2 -7 14 -15z"/>
<path d="M285 598 c-51 -40 -107 -148 -76 -148 5 0 29 9 54 20 53 24 70 19 97
-25 34 -54 27 -72 -35 -100 -30 -13 -55 -28 -55 -32 0 -16 16 -30 40 -37 24
-6 24 -6 -2 9 -16 9 -28 19 -28 23 0 5 24 19 53 33 36 17 53 31 55 46 4 29
-23 79 -53 99 -22 14 -27 14 -71 -5 -26 -12 -50 -19 -53 -16 -9 10 32 78 72
117 42 43 43 48 2 16z"/>
</g>
</svg>
